<?xml version="1.0" standalone="no"?>
<!DOCTYPE svg PUBLIC "-//W3C//DTD SVG 20010904//EN"
 "http://www.w3.org/TR/2001/REC-SVG-20010904/DTD/svg10.dtd">
<svg version="1.0" xmlns="http://www.w3.org/2000/svg"
 width="40.000000pt" height="40.000000pt" viewBox="0 0 40.000000 40.000000"
 preserveAspectRatio="xMidYMid meet">

<g transform="translate(0.000000,40.000000) scale(0.100000,-0.100000)"
fill="#000000" stroke="none">
<path d="M177 313 c-14 -13 -6 -20 23 -19 27 1 28 2 13 14 -19 14 -27 15 -36
5z"/>
<path d="M246 312 c-3 -5 1 -9 9 -9 8 0 12 4 9 9 -3 4 -7 8 -9 8 -2 0 -6 -4
-9 -8z"/>
<path d="M110 275 c-9 -10 -9 -15 -1 -15 6 0 11 5 11 12 0 6 10 3 23 -8 l22
-19 -19 23 c-23 26 -20 26 -36 7z"/>
<path d="M235 281 c-3 -6 3 -9 14 -8 11 0 17 5 15 9 -7 11 -22 10 -29 -1z"/>
<path d="M285 266 c0 -13 6 -23 13 -23 6 0 12 6 12 12 0 7 -6 17 -12 23 -10 8
-13 5 -13 -12z"/>
<path d="M170 270 c0 -5 5 -10 10 -10 6 0 10 5 10 10 0 6 -4 10 -10 10 -5 0
-10 -4 -10 -10z"/>
<path d="M170 239 c0 -5 -7 -9 -16 -9 -8 0 -12 -5 -9 -10 5 -8 12 -7 22 1 9 8
17 9 21 3 9 -13 45 -27 38 -15 -10 15 26 22 43 9 12 -10 11 -7 -2 9 -12 14
-30 21 -57 21 -22 1 -40 -3 -40 -9z"/>
<path d="M104 212 c4 -7 4 -12 -1 -12 -4 0 -8 -13 -8 -28 0 -22 4 -28 17 -24
14 3 15 8 7 23 -5 11 -7 24 -4 29 3 5 0 12 -6 16 -8 4 -9 3 -5 -4z"/>
<path d="M275 178 c-6 -12 -17 -23 -25 -26 -13 -3 -13 -2 0 8 13 10 12 11 -3
6 -10 -3 -25 -6 -33 -6 -9 0 -12 -5 -9 -10 4 -6 10 -8 15 -5 12 8 41 -6 34
-16 -3 -5 -9 -7 -13 -5 -4 3 -13 1 -21 -4 -10 -6 -4 -8 17 -6 38 3 58 23 58
59 1 33 -7 35 -20 5z"/>
<path d="M120 125 c0 -20 28 -38 47 -31 14 6 15 9 4 15 -7 5 -11 13 -8 17 3 5
-6 10 -19 10 -14 1 -24 -4 -24 -11z"/>
</g>
</svg>
